<svg xmlns="http://www.w3.org/2000/svg" class="iso" viewBox="0 0 213.4 160.1" width="640" height="480"><style>:root{--pitch:#0EAD2C;--pitch-ink:#087A1F;--pitch-deep:#06661A;--kit-red:#EB0002;--card-red:#C70003;--yellow-card:#FFC21A;--boot:#0A0F0B;--chalk:#FFFFFF;--turf-50:#F6F8F3;--turf-100:#ECF1E8;--green-50:#E8F5EA;--red-50:#FDEDED;--night:#07110A;--night-1:#0F2114;--night-2:#16301D;--bg:var(--chalk);--surface:var(--turf-50);--surface-2:var(--turf-100);--text:var(--boot);--text-muted:#4B5A4F;--link:var(--pitch-ink);--line:#D5DDD1;--line-strong:#6B7A6E;--focus:var(--pitch-deep);--on-pitch:var(--boot);--danger:var(--card-red);--danger-bg:var(--red-50);--warn-bg:var(--yellow-card);--on-warn:var(--boot);--check:var(--pitch-ink);--check-bg:var(--green-50);--chalk-line:var(--pitch);--scoreboard:var(--boot);--scoreboard-text:var(--chalk);--scoreboard-accent:var(--yellow-card);--select-arrow:url("data:image/svg+xml,%3Csvg xmlns='http://www.w3.org/2000/svg' viewBox='0 0 24 24' fill='none' stroke='%230A0F0B' stroke-width='2.5' stroke-linecap='round' stroke-linejoin='round'%3E%3Cpath d='M6 9l6 6 6-6'/%3E%3C/svg%3E");--plate-bg:var(--chalk);--plate-ink:var(--boot);--plate-muted:#4B5A4F;--plate-accent:var(--pitch);--plate-strip:var(--boot);--plate-strip-text:var(--chalk);--space-1:4px;--space-2:8px;--space-3:12px;--space-4:16px;--space-6:24px;--space-8:32px;--space-12:48px;--space-16:64px;--target:48px;--target-primary:56px;--measure:640px;--measure-wide:1280px;--dur-tap:120ms;--dur-quick:200ms;--dur-move:320ms;--dur-show:560ms;}:root{--iso-w:1.25px;--iso-line:#2E3E33;--iso-detail:#9AA89D;--iso-top:#FFFFFF;--iso-front:#EEF2EB;--iso-side:#DCE5D8;--iso-grass-t:#CFEACB;--iso-grass-f:#A6D6A0;--iso-grass-s:#8CC786;--iso-chalk:#FFFFFF;--iso-ink:var(--boot);--iso-glass:#DCE5D8;--iso-glass-on:var(--green-50);--iso-on-t:#3FD15C;--iso-on:var(--pitch);--iso-on-s:var(--pitch-ink);--iso-beam:var(--pitch);--iso-beam-o:0.13;--iso-shadow:rgb(10 15 11 / 0.08);}.iso{display:block;width:100%;height:auto;overflow:hidden;}.iso:where(path,rect,circle,ellipse,line,polygon){vector-effect:non-scaling-stroke;stroke-linejoin:round;stroke-linecap:round;}.iso-t,.iso-f,.iso-s{stroke:var(--iso-line);stroke-width:var(--iso-w);}.iso-t{fill:var(--iso-top);}.iso-f{fill:var(--iso-front);}.iso-s{fill:var(--iso-side);}.iso-d{fill:none;stroke:var(--iso-detail);stroke-width:1px;}.iso-ln{fill:none;stroke:var(--iso-line);stroke-width:var(--iso-w);}.iso-ink{fill:var(--iso-ink);stroke:var(--iso-line);stroke-width:var(--iso-w);}.iso-ink-f{fill:var(--iso-ink);stroke:none;}.iso-shade{fill:var(--iso-shadow);stroke:none;}.iso-t.iso-grass{fill:var(--iso-grass-t);}.iso-f.iso-grass{fill:var(--iso-grass-f);}.iso-s.iso-grass{fill:var(--iso-grass-s);}.iso-chalk{fill:none;stroke:var(--iso-chalk);stroke-width:1.5px;}.iso-chalk-f{fill:var(--iso-chalk);stroke:none;}.iso-t.iso-paper,.iso-f.iso-paper,.iso-s.iso-paper,.iso-paper-f{fill:var(--plate-bg);stroke:#2E3E33;}.iso-f.iso-paper{fill:#F2F5F0;}.iso-s.iso-paper{fill:#DFE7DB;}.iso-paper-f{stroke:none;}.iso-plate-ink{fill:var(--plate-ink);stroke:none;}.iso-plate-soft{fill:#C9D3C6;stroke:none;}.iso-plate-line{fill:none;stroke:#9AA89D;stroke-width:1px;}.iso-plate-on{fill:var(--plate-accent);stroke:none;}.iso-t.iso-on{fill:var(--iso-on-t);}.iso-f.iso-on{fill:var(--iso-on);}.iso-s.iso-on{fill:var(--iso-on-s);}.iso-on-f{fill:var(--iso-on);stroke:none;}.iso-on-ln{fill:none;stroke:var(--iso-on);stroke-width:2px;}.iso-glass{fill:var(--iso-glass);stroke:var(--iso-line);stroke-width:var(--iso-w);}.iso-glass.iso-on{fill:var(--iso-glass-on);stroke:var(--iso-on);}.iso-lamp{fill:var(--iso-glass);stroke:var(--iso-line);stroke-width:1px;}.iso-lamp.iso-on{fill:var(--iso-on-t);stroke:var(--iso-on);}.iso-beam{fill:var(--iso-beam);stroke:none;opacity:var(--iso-beam-o);}.iso-t.iso-warn,.iso-f.iso-warn,.iso-s.iso-warn,.iso-warn-f{fill:var(--yellow-card);}.iso-s.iso-warn{fill:#D9A10F;}.iso-t.iso-bad,.iso-f.iso-bad,.iso-s.iso-bad,.iso-bad-f{fill:var(--kit-red);}.iso-s.iso-bad{fill:var(--card-red);}.iso-warn-f,.iso-bad-f{stroke:none;}.iso-kit{fill:var(--kit-red);stroke:none;}.iso-halo{display:none;fill:var(--iso-on);stroke:none;opacity:0.45;}.iso-wire{fill:none;stroke:var(--iso-detail);stroke-width:1.25px;stroke-dasharray:2 3;}.iso-wire.iso-on{stroke:var(--iso-on);stroke-dasharray:none;}.iso-pulse{fill:none;stroke:var(--iso-on-t);stroke-width:3px;stroke-dasharray:14 200;stroke-dashoffset:14;opacity:0;}.iso [data-tap]{cursor:pointer;}.iso [data-key]{transition:opacity var(--dur-quick) var(--ease-kick);}.iso.is-focus [data-key]:not(.is-key){opacity:0.35;}@media (prefers-reduced-motion:no-preference){.iso.is-play [data-a="rise"]{animation:iso-rise 900ms var(--ease-bounce) both;animation-delay:var(--d,0ms);}.iso.is-play [data-a="drop"]{animation:iso-drop 700ms var(--ease-bounce) both;animation-delay:var(--d,0ms);}.iso.is-play [data-a="fade"]{animation:iso-fade 600ms var(--ease-kick) both;animation-delay:var(--d,0ms);}.iso.is-play [data-a="light"]{animation:iso-light 700ms steps(1,end) both;animation-delay:var(--d,0ms);}.iso.is-play [data-a="flicker"]{animation:iso-flicker 900ms linear both;animation-delay:var(--d,0ms);}.iso.is-play [data-a="sweep"]{transform-box:fill-box;transform-origin:50% 0;animation:iso-sweep 1400ms var(--ease-glide) both;animation-delay:var(--d,0ms);}.iso.is-play [data-a="slide"]{animation:iso-slide 1100ms var(--ease-kick) both;animation-delay:var(--d,0ms);}.iso.is-play [data-a="roll"]{animation:iso-roll 1000ms var(--ease-kick) both;animation-delay:var(--d,0ms);}.iso.is-play [data-a="wave"]{transform-box:fill-box;transform-origin:0 100%;animation:iso-wave 1200ms ease-in-out both;animation-delay:var(--d,0ms);}.iso.is-play .iso-pulse{animation:iso-pulse 1100ms linear both;animation-delay:var(--d,0ms);}.iso.is-play .iso-scan{animation:iso-scan 1600ms var(--ease-glide) both;animation-delay:var(--d,0ms);}}@keyframes iso-rise{from{transform:translateY(18px);opacity:0;}to{transform:none;opacity:1;}}@keyframes iso-drop{from{transform:translateY(-22px);opacity:0;}to{transform:none;opacity:1;}}@keyframes iso-fade{from{opacity:0;}to{opacity:1;}}@keyframes iso-light{from{opacity:0;}to{opacity:1;}}@keyframes iso-flicker{0%{opacity:0;}20%{opacity:1;}30%{opacity:.2;}45%{opacity:1;}55%{opacity:.5;}70%,100%{opacity:1;}}@keyframes iso-sweep{0%{opacity:0;transform:scaleY(.2);}40%{opacity:1;}100%{opacity:1;transform:none;}}@keyframes iso-slide{from{transform:translate(var(--sx,-20px),var(--sy,-12px));opacity:0;}30%{opacity:1;}to{transform:none;opacity:1;}}@keyframes iso-roll{from{transform:translate(var(--sx,-30px),var(--sy,-17px));}to{transform:none;}}@keyframes iso-wave{0%,100%{transform:none;}25%{transform:skewY(-6deg);}60%{transform:skewY(4deg);}}@keyframes iso-pulse{0%{stroke-dashoffset:14;opacity:1;}92%{opacity:1;}100%{stroke-dashoffset:-100;opacity:0;}}@keyframes iso-scan{0%{transform:translateY(var(--sy0,-20px));opacity:0;}15%{opacity:1;}85%{opacity:1;}100%{transform:translateY(var(--sy1,20px));opacity:0;}}.iso-t.iso-skin{fill:#A9744F;}.iso-f.iso-skin{fill:#8A5A3B;}.iso-s.iso-skin{fill:#6E452C;}.iso .iso-tube-o,.iso .iso-tube{vector-effect:none;fill:none;}.iso-tube-o{stroke:var(--iso-line);}.iso-tube-skin{stroke:#8A5A3B;}.iso-tube-on{stroke:var(--iso-on);}.iso-tube-plain{stroke:var(--iso-front);}.iso-t.iso-ink,.iso-f.iso-ink,.iso-s.iso-ink{fill:#26332A;}.iso-beam-strong{opacity:calc(var(--iso-beam-o) * 2.4);}.iso-t.iso-cash,.iso-f.iso-cash,.iso-s.iso-cash{fill:#CFE8C4;}.iso-s.iso-cash{fill:#A9CF9A;}.iso-cash-ink{fill:none;stroke:#4F7D42;stroke-width:1px;}.iso-t.iso-bank,.iso-f.iso-bank,.iso-s.iso-bank{fill:#1F5FA8;}.iso-score-seg{fill:var(--yellow-card);}.iso-off-seg{fill:#2E3B32;}.iso-t.iso-roof{fill:var(--iso-side);}.iso-ball-seam{fill:none;stroke:var(--iso-line);stroke-width:1px;}.iso-cable{fill:none;stroke:var(--iso-line);stroke-width:2.2px;}.iso-lamp.iso-lamp-warn{fill:var(--yellow-card);stroke:#A67A00;}.iso-bad-ln{fill:none;stroke:var(--kit-red);stroke-width:2.5px;}.iso-t.iso-out{fill:#EDE8DC;}.iso-f.iso-out{fill:#DCD4C2;}.iso-s.iso-out{fill:#C9BFA9;}.iso-ball{fill:#FFFFFF;stroke:var(--iso-line);stroke-width:var(--iso-w);}.iso-t.iso-open,.iso-f.iso-open,.iso-s.iso-open{fill:var(--iso-glass-on);stroke:var(--iso-on);stroke-width:1.6px;}.iso-wire.iso-on{stroke-width:2px;}</style><defs><filter id="iso-bloom" filterUnits="userSpaceOnUse" x="-2000" y="-2000" width="6000" height="6000"><feGaussianBlur stdDeviation="9"/></filter></defs><path class="iso-s iso-grass" d="M181.2 112.5L115.4 150.5L115.4 155.5L181.2 117.5Z"/><path class="iso-f iso-grass" d="M32.2 102.5L115.4 150.5L115.4 155.5L32.2 107.5Z"/><path class="iso-t iso-grass" d="M98 64.5L181.2 112.5L115.4 150.5L32.2 102.5Z"/><g transform="matrix(0.866 0.5 -0.866 0.5 98 64.5)"><rect class="iso-chalk" x="5.32" y="5.32" width="85.36" height="65.36"/></g><path class="iso-shade" d="M96.4 82.5L136.5 104.1L84.2 137.3L44.9 114.6Z"/><path class="iso-s iso-paper" d="M134.4 102.3L84.2 131.3L84.2 132.5L134.4 103.5Z"/><path class="iso-f iso-paper" d="M49.5 111.3L84.2 131.3L84.2 132.5L49.5 112.5Z"/><path class="iso-t iso-paper" d="M99.8 82.3L134.4 102.3L84.2 131.3L49.5 111.3Z"/><g transform="matrix(0.866 0.5 -0.866 0.5 99.8 82.3)"><rect class="iso-plate-on" width="40" height="5.5"/><rect class="iso-plate-soft" x="3.5" y="9" width="13" height="15" rx="1"/><circle class="iso-paper-f" cx="10" cy="14.5" r="3.1"/><path class="iso-paper-f" d="M5 24c0-4.6 2.3-6.2 5-6.2s5 1.6 5 6.2z"/><rect class="iso-plate-ink" x="19.5" y="10" width="16" height="2.6" rx="0.6"/><rect class="iso-plate-ink" x="19.5" y="14.4" width="11" height="2.6" rx="0.6"/><rect class="iso-plate-on" x="19.5" y="19.5" width="7" height="4" rx="2"/><rect class="iso-plate-ink" x="25" y="28" width="3.833333333333333" height="3.833333333333333"/><rect class="iso-paper-f" x="25.766666666666666" y="28.766666666666666" width="2.3" height="2.3"/><rect class="iso-plate-ink" x="26.27777777777778" y="29.27777777777778" width="1.2777777777777777" height="1.2777777777777777"/><rect class="iso-plate-ink" x="32.666666666666664" y="28" width="3.833333333333333" height="3.833333333333333"/><rect class="iso-paper-f" x="33.43333333333333" y="28.766666666666666" width="2.3" height="2.3"/><rect class="iso-plate-ink" x="33.94444444444444" y="29.27777777777778" width="1.2777777777777777" height="1.2777777777777777"/><rect class="iso-plate-ink" x="25" y="35.666666666666664" width="3.833333333333333" height="3.833333333333333"/><rect class="iso-paper-f" x="25.766666666666666" y="36.43333333333333" width="2.3" height="2.3"/><rect class="iso-plate-ink" x="26.27777777777778" y="36.94444444444444" width="1.2777777777777777" height="1.2777777777777777"/><rect class="iso-plate-ink" x="28.833333333333332" y="28" width="1.1755555555555555" height="1.1755555555555555"/><rect class="iso-plate-ink" x="30.11111111111111" y="29.27777777777778" width="1.1755555555555555" height="1.1755555555555555"/><rect class="iso-plate-ink" x="31.38888888888889" y="29.27777777777778" width="1.1755555555555555" height="1.1755555555555555"/><rect class="iso-plate-ink" x="28.833333333333332" y="30.555555555555557" width="1.1755555555555555" height="1.1755555555555555"/><rect class="iso-plate-ink" x="31.38888888888889" y="30.555555555555557" width="1.1755555555555555" height="1.1755555555555555"/><rect class="iso-plate-ink" x="25" y="31.833333333333332" width="1.1755555555555555" height="1.1755555555555555"/><rect class="iso-plate-ink" x="26.27777777777778" y="31.833333333333332" width="1.1755555555555555" height="1.1755555555555555"/><rect class="iso-plate-ink" x="30.11111111111111" y="31.833333333333332" width="1.1755555555555555" height="1.1755555555555555"/><rect class="iso-plate-ink" x="31.38888888888889" y="31.833333333333332" width="1.1755555555555555" height="1.1755555555555555"/><rect class="iso-plate-ink" x="33.94444444444444" y="31.833333333333332" width="1.1755555555555555" height="1.1755555555555555"/><rect class="iso-plate-ink" x="27.555555555555557" y="33.111111111111114" width="1.1755555555555555" height="1.1755555555555555"/><rect class="iso-plate-ink" x="28.833333333333332" y="33.111111111111114" width="1.1755555555555555" height="1.1755555555555555"/><rect class="iso-plate-ink" x="30.11111111111111" y="33.111111111111114" width="1.1755555555555555" height="1.1755555555555555"/><rect class="iso-plate-ink" x="31.38888888888889" y="33.111111111111114" width="1.1755555555555555" height="1.1755555555555555"/><rect class="iso-plate-ink" x="32.666666666666664" y="33.111111111111114" width="1.1755555555555555" height="1.1755555555555555"/><rect class="iso-plate-ink" x="33.94444444444444" y="33.111111111111114" width="1.1755555555555555" height="1.1755555555555555"/><rect class="iso-plate-ink" x="35.22222222222222" y="33.111111111111114" width="1.1755555555555555" height="1.1755555555555555"/><rect class="iso-plate-ink" x="25" y="34.388888888888886" width="1.1755555555555555" height="1.1755555555555555"/><rect class="iso-plate-ink" x="26.27777777777778" y="34.388888888888886" width="1.1755555555555555" height="1.1755555555555555"/><rect class="iso-plate-ink" x="28.833333333333332" y="34.388888888888886" width="1.1755555555555555" height="1.1755555555555555"/><rect class="iso-plate-ink" x="30.11111111111111" y="34.388888888888886" width="1.1755555555555555" height="1.1755555555555555"/><rect class="iso-plate-ink" x="31.38888888888889" y="34.388888888888886" width="1.1755555555555555" height="1.1755555555555555"/><rect class="iso-plate-ink" x="32.666666666666664" y="34.388888888888886" width="1.1755555555555555" height="1.1755555555555555"/><rect class="iso-plate-ink" x="33.94444444444444" y="34.388888888888886" width="1.1755555555555555" height="1.1755555555555555"/><rect class="iso-plate-ink" x="35.22222222222222" y="34.388888888888886" width="1.1755555555555555" height="1.1755555555555555"/><rect class="iso-plate-ink" x="28.833333333333332" y="35.666666666666664" width="1.1755555555555555" height="1.1755555555555555"/><rect class="iso-plate-ink" x="31.38888888888889" y="35.666666666666664" width="1.1755555555555555" height="1.1755555555555555"/><rect class="iso-plate-ink" x="28.833333333333332" y="36.94444444444444" width="1.1755555555555555" height="1.1755555555555555"/><rect class="iso-plate-ink" x="30.11111111111111" y="36.94444444444444" width="1.1755555555555555" height="1.1755555555555555"/><rect class="iso-plate-ink" x="31.38888888888889" y="36.94444444444444" width="1.1755555555555555" height="1.1755555555555555"/><rect class="iso-plate-ink" x="32.666666666666664" y="36.94444444444444" width="1.1755555555555555" height="1.1755555555555555"/><rect class="iso-plate-ink" x="33.94444444444444" y="36.94444444444444" width="1.1755555555555555" height="1.1755555555555555"/><rect class="iso-plate-ink" x="35.22222222222222" y="36.94444444444444" width="1.1755555555555555" height="1.1755555555555555"/><rect class="iso-plate-ink" x="28.833333333333332" y="38.22222222222222" width="1.1755555555555555" height="1.1755555555555555"/><rect class="iso-plate-ink" x="30.11111111111111" y="38.22222222222222" width="1.1755555555555555" height="1.1755555555555555"/><rect class="iso-plate-ink" x="31.38888888888889" y="38.22222222222222" width="1.1755555555555555" height="1.1755555555555555"/><rect class="iso-plate-ink" x="32.666666666666664" y="38.22222222222222" width="1.1755555555555555" height="1.1755555555555555"/><rect class="iso-plate-soft" x="3.5" y="29" width="17" height="1.6" rx="0.8"/><rect class="iso-plate-soft" x="3.5" y="33" width="12" height="1.6" rx="0.8"/><rect class="iso-plate-ink" y="49" width="40" height="9"/><rect class="iso-paper-f" x="4" y="52.4" width="2.4" height="2.2" rx="0.4"/><rect class="iso-paper-f" x="7.6" y="52.4" width="2.4" height="2.2" rx="0.4"/><rect class="iso-paper-f" x="11.2" y="52.4" width="2.4" height="2.2" rx="0.4"/><rect class="iso-paper-f" x="14.8" y="52.4" width="2.4" height="2.2" rx="0.4"/><rect class="iso-paper-f" x="18.4" y="52.4" width="2.4" height="2.2" rx="0.4"/><rect class="iso-paper-f" x="22" y="52.4" width="2.4" height="2.2" rx="0.4"/><rect class="iso-paper-f" x="25.6" y="52.4" width="2.4" height="2.2" rx="0.4"/><rect class="iso-paper-f" x="29.2" y="52.4" width="2.4" height="2.2" rx="0.4"/><rect class="iso-paper-f" x="32.8" y="52.4" width="2.4" height="2.2" rx="0.4"/></g><g data-a="fade" style="--d:500ms"><path class="iso-beam iso-beam-strong" d="M97.2 77L107.1 82.8L107.1 114.3L97.2 120L87.2 114.3L87.2 82.8Z"/></g><rect class="iso-on-ln" transform="matrix(0.866 0.5 -0.866 0.5 97.2 107.5)" width="13.5" height="13.5" data-a="light" style="--d:700ms"/><g data-a="drop" style="--d:150ms"><path class="iso-f" d="M124.7 78.3L124.7 78.6L124.4 79L124 79.3L91.1 98.3L90 98.6L88.8 98.6L87.7 98.3L70.3 88.3L69.9 88L69.7 87.6L69.6 87.3L69.6 84.3L69.7 84.6L69.9 85L70.3 85.3L87.7 95.3L88.8 95.6L90 95.6L91.1 95.3L124 76.3L124.4 76L124.7 75.6L124.7 75.3Z"/><path class="iso-t" d="M124 74.3L124.7 74.9L124.7 75.6L124 76.3L91.1 95.3L90 95.6L88.8 95.6L87.7 95.3L70.3 85.3L69.7 84.6L69.7 83.9L70.3 83.3L103.2 64.3L104.3 63.9L105.6 63.9L106.7 64.3Z"/><g transform="matrix(0.866 0.5 -0.866 0.5 105 63.3)"><rect class="iso-ink" x="1" y="1" width="22" height="40" rx="3.5"/><rect class="iso-glass iso-on" x="2.2" y="5" width="19.6" height="32" rx="1.5"/><g transform="translate(2.2 5)"><circle class="iso-on-f" cx="9.8" cy="13.44" r="5.88"/><path fill="none" stroke="var(--iso-glass-on)" stroke-width="2.5" d="M7.154000000000001 13.44l1.8816 1.8816l3.528 -3.6456"/><rect class="iso-on-f" x="2.7440000000000007" y="24.96" width="14.112" height="1.92" rx="1" opacity=".5"/></g></g></g></svg>
